<svg width="24" height="24" viewBox="0 0 24 24" fill="none" xmlns="http://www.w3.org/2000/svg">
<path fill-rule="evenodd" clip-rule="evenodd" d="M21 12.005C21.0014 12.2836 20.8873 12.5626 20.658 12.763L12.658 19.753C12.2421 20.1164 11.6103 20.0739 11.247 19.658C10.8836 19.2421 10.9261 18.6103 11.342 18.247L17.3471 13L4 13C3.44772 13 3 12.5523 3 12C3 11.4477 3.44772 11 4 11L17.33 11L11.341 5.75211C10.9256 5.38814 10.8839 4.75635 11.2479 4.34097C11.6119 3.92559 12.2437 3.88392 12.659 4.24789L20.5616 11.1724C20.8262 11.3524 21 11.6559 21 12C21 12.0017 21 12.0034 21 12.005Z" fill="#ABADB2"/>
</svg>
