<svg width="24" height="24" viewBox="0 0 24 24" fill="none" xmlns="http://www.w3.org/2000/svg">
<path fill-rule="evenodd" clip-rule="evenodd" d="M5.9999 2.39999H17.9999C19.9881 2.39999 21.5999 4.01177 21.5999 5.99999V18C21.5999 19.9882 19.9881 21.6 17.9999 21.6H5.9999C4.01168 21.6 2.3999 19.9882 2.3999 18V5.99999C2.3999 4.01177 4.01168 2.39999 5.9999 2.39999Z" fill="#00CBAD"/>
<path d="M8.83208 11.1361C8.36043 10.6705 7.60064 10.6754 7.13506 11.1471C6.66947 11.6187 6.67439 12.3785 7.14605 12.8441L10.1952 15.854C10.6968 16.3492 11.5152 16.3074 11.9638 15.7637L16.9146 9.76373C17.3364 9.25254 17.264 8.49621 16.7528 8.07441C16.2416 7.65261 15.4853 7.72507 15.0635 8.23625L10.9476 13.2244L8.83208 11.1361Z" fill="white"/>
</svg>
