<svg width="12" height="12" viewBox="0 0 12 12" fill="none" xmlns="http://www.w3.org/2000/svg">
<path fill-rule="evenodd" clip-rule="evenodd" d="M7.21953 6.00477L11.7489 10.5359C12.0839 10.871 12.0837 11.4142 11.7483 11.749C11.413 12.0839 10.8696 12.0836 10.5346 11.7485L6.00486 7.21701L1.4647 11.7481C1.12928 12.0828 0.585854 12.0824 0.250929 11.7472C-0.0839951 11.4119 -0.0835911 10.8688 0.251831 10.534L4.79163 6.00332L0.254182 1.46412C-0.08084 1.12897 -0.0805942 0.585824 0.254731 0.250976C0.590056 -0.0838727 1.13348 -0.083627 1.4685 0.251524L6.00631 4.79108L10.5343 0.272161C10.8697 -0.0625898 11.4131 -0.0621861 11.7481 0.273063C12.083 0.608311 12.0826 1.15145 11.7472 1.4862L7.21953 6.00477Z" fill="white"/>
</svg>
