<svg width="16" height="15" viewBox="0 0 16 15" fill="none" xmlns="http://www.w3.org/2000/svg">
<path fill-rule="evenodd" clip-rule="evenodd" d="M11.3337 1.66671V1.00004C11.3337 0.631851 11.6321 0.333374 12.0003 0.333374C12.3685 0.333374 12.667 0.631851 12.667 1.00004V1.66671H13.3337C14.4382 1.66671 15.3337 2.56214 15.3337 3.66671V5.66671V7.00004V10.3334C15.3337 12.5425 13.5428 14.3334 11.3337 14.3334H4.66699C2.45785 14.3334 0.666992 12.5425 0.666992 10.3334V7.00004V5.66671V3.66671C0.666992 2.56214 1.56242 1.66671 2.66699 1.66671H4.00033V1.00004C4.00033 0.631851 4.2988 0.333374 4.66699 0.333374C5.03518 0.333374 5.33366 0.631851 5.33366 1.00004V1.66671H11.3337ZM2.00033 5.66671H14.0003V3.66671C14.0003 3.29852 13.7018 3.00004 13.3337 3.00004H12.667C12.667 3.36823 12.3685 3.66671 12.0003 3.66671C11.6321 3.66671 11.3337 3.36823 11.3337 3.00004H5.33366C5.33366 3.36823 5.03518 3.66671 4.66699 3.66671C4.2988 3.66671 4.00033 3.36823 4.00033 3.00004H2.66699C2.2988 3.00004 2.00033 3.29852 2.00033 3.66671V5.66671ZM2.00033 7.00004V10.3334C2.00033 11.8061 3.19423 13 4.66699 13H11.3337C12.8064 13 14.0003 11.8061 14.0003 10.3334V7.00004H2.00033Z" fill="#ABADB2"/>
</svg>
