<svg width="30" height="30" viewBox="0 0 30 30" fill="none" xmlns="http://www.w3.org/2000/svg">
<rect x="1" y="1" width="28" height="28" rx="9" stroke="#00CBAD" stroke-width="2"/>
<path fill-rule="evenodd" clip-rule="evenodd" d="M19.8842 11.3301L20.8132 10.4011L18.7656 8.35356L17.8367 9.28252L19.8842 11.3301ZM18.7119 12.5024L16.6644 10.4548L9.00479 18.1144L8.53353 20.6332L11.0523 20.1619L18.7119 12.5024ZM22.035 9.27831C22.6551 9.89842 22.6551 10.9038 22.035 11.5239L12.0432 21.5157C11.925 21.6339 11.7738 21.7136 11.6095 21.7444L7.64854 22.4855C7.07578 22.5926 6.57412 22.091 6.68128 21.5182L7.42237 17.5572C7.45311 17.3929 7.53281 17.2417 7.65102 17.1235L17.6428 7.13174C18.2629 6.51163 19.2683 6.51163 19.8884 7.13174L22.035 9.27831ZM21.675 22.5H14.9918C13.8917 22.5 13.8917 20.8333 14.9918 20.8333H21.675C22.7751 20.8333 22.7751 22.5 21.675 22.5Z" fill="#00CBAD"/>
</svg>
