<svg width="18" height="22" viewBox="0 0 18 22" fill="none" xmlns="http://www.w3.org/2000/svg">
<path fill-rule="evenodd" clip-rule="evenodd" d="M4.41667 0.916748H11.8858C12.4388 0.916748 12.9622 1.16633 13.3103 1.59598L16.8412 5.95405C17.1057 6.28053 17.25 6.68796 17.25 7.10815V17.4167C17.25 19.4418 15.6084 21.0834 13.5833 21.0834H4.41667C2.39162 21.0834 0.75 19.4418 0.75 17.4167V4.58341C0.75 2.55837 2.39162 0.916748 4.41667 0.916748ZM12.3229 3.28958V5.86675H14.4109L12.3229 3.28958ZM4.41667 2.75008C3.40414 2.75008 2.58333 3.57089 2.58333 4.58341V17.4167C2.58333 18.4293 3.40414 19.2501 4.41667 19.2501H13.5833C14.5959 19.2501 15.4167 18.4293 15.4167 17.4167V7.70008H12.3229C11.3104 7.70008 10.4896 6.87927 10.4896 5.86675V2.75008H4.41667Z" fill="#BFC1C5"/>
</svg>
