<svg width="13" height="12" viewBox="0 0 13 12" fill="none" xmlns="http://www.w3.org/2000/svg">
<path fill-rule="evenodd" clip-rule="evenodd" d="M1.73171 1.73165C-0.354988 3.81835 -0.354988 7.20156 1.73171 9.28827C3.81841 11.375 7.20163 11.375 9.28833 9.28827C11.375 7.20156 11.375 3.81835 9.28833 1.73165C7.20163 -0.355049 3.81841 -0.355049 1.73171 1.73165ZM2.55667 2.55661C4.18776 0.92552 6.83228 0.92552 8.46337 2.55661C10.0945 4.1877 10.0945 6.83222 8.46337 8.46331C6.83228 10.0944 4.18776 10.0944 2.55667 8.46331C0.925581 6.83222 0.925581 4.1877 2.55667 2.55661Z" fill="#6B6F78"/>
<path d="M11.8884 10.8314L9.47952 8.42254C8.92955 7.87257 8.10459 8.69753 8.65457 9.2475L11.0634 11.6564C11.6134 12.2063 12.4384 11.3814 11.8884 10.8314Z" fill="#6B6F78"/>
</svg>
