<svg width="22" height="22" viewBox="0 0 22 22" fill="none" xmlns="http://www.w3.org/2000/svg">
<path fill-rule="evenodd" clip-rule="evenodd" d="M21.0834 13.8059V17.4167C21.0834 19.4417 19.4417 21.0833 17.4167 21.0833H4.58335C2.55831 21.0833 0.916687 19.4417 0.916687 17.4167V4.58334C0.916687 2.55829 2.55831 0.916672 4.58335 0.916672H17.4167C19.4417 0.916672 21.0834 2.55829 21.0834 4.58334V13.6942C21.0856 13.7314 21.0856 13.7687 21.0834 13.8059ZM19.25 14.1281L15.5835 10.4629L12.1184 13.928L16.9083 19.25H17.4167C18.4292 19.25 19.25 18.4292 19.25 17.4167V14.1281ZM19.25 11.5359V4.58334C19.25 3.57082 18.4292 2.75001 17.4167 2.75001H4.58335C3.57083 2.75001 2.75002 3.57082 2.75002 4.58334V15.2036L7.60184 10.3518C7.9732 9.98046 8.58004 9.99642 8.93137 10.3868L10.8903 12.5634L14.9352 8.51849C15.2931 8.16056 15.8734 8.1605 16.2314 8.51837L19.25 11.5359ZM14.4418 19.25L8.21501 12.3314L2.7828 17.7636C2.94495 18.6102 3.68944 19.25 4.58335 19.25H14.4418ZM7.79169 8.25C6.52603 8.25 5.50002 7.22399 5.50002 5.95834C5.50002 4.69269 6.52603 3.66667 7.79169 3.66667C9.05734 3.66667 10.0834 4.69269 10.0834 5.95834C10.0834 7.22399 9.05734 8.25 7.79169 8.25ZM7.79169 6.41667C8.04482 6.41667 8.25002 6.21147 8.25002 5.95834C8.25002 5.70521 8.04482 5.5 7.79169 5.5C7.53856 5.5 7.33335 5.70521 7.33335 5.95834C7.33335 6.21147 7.53856 6.41667 7.79169 6.41667Z" fill="#BFC1C5"/>
</svg>
