<svg width="22" height="22" viewBox="0 0 22 22" fill="none" xmlns="http://www.w3.org/2000/svg">
<path fill-rule="evenodd" clip-rule="evenodd" d="M21.0837 13.8058V17.4166C21.0837 19.4417 19.442 21.0833 17.417 21.0833H4.58366C2.55861 21.0833 0.916992 19.4417 0.916992 17.4166V4.58329C0.916992 2.55825 2.55861 0.916626 4.58366 0.916626H17.417C19.442 0.916626 21.0837 2.55825 21.0837 4.58329V13.6941C21.0859 13.7313 21.0859 13.7686 21.0837 13.8058ZM19.2503 14.1281L15.5838 10.4629L12.1187 13.9279L16.9086 19.25H17.417C18.4295 19.25 19.2503 18.4291 19.2503 17.4166V14.1281ZM19.2503 11.5358V4.58329C19.2503 3.57077 18.4295 2.74996 17.417 2.74996H4.58366C3.57114 2.74996 2.75033 3.57077 2.75033 4.58329V15.2036L7.60214 10.3518C7.97351 9.98041 8.58035 9.99637 8.93168 10.3867L10.8906 12.5633L14.9355 8.51844C15.2934 8.16051 15.8737 8.16046 16.2317 8.51832L19.2503 11.5358ZM14.4421 19.25L8.21531 12.3313L2.7831 17.7635C2.94526 18.6102 3.68974 19.25 4.58366 19.25H14.4421ZM7.79199 8.24996C6.52634 8.24996 5.50033 7.22395 5.50033 5.95829C5.50033 4.69264 6.52634 3.66663 7.79199 3.66663C9.05764 3.66663 10.0837 4.69264 10.0837 5.95829C10.0837 7.22395 9.05764 8.24996 7.79199 8.24996ZM7.79199 6.41663C8.04512 6.41663 8.25033 6.21142 8.25033 5.95829C8.25033 5.70516 8.04512 5.49996 7.79199 5.49996C7.53886 5.49996 7.33366 5.70516 7.33366 5.95829C7.33366 6.21142 7.53886 6.41663 7.79199 6.41663Z" fill="#BFC1C5"/>
</svg>
