<svg width="19" height="19" viewBox="0 0 19 19" fill="none" xmlns="http://www.w3.org/2000/svg">
<path fill-rule="evenodd" clip-rule="evenodd" d="M15.861 5.5961L16.9757 4.48135L14.5187 2.02428L13.4039 3.13904L15.861 5.5961ZM14.4542 7.00288L11.9971 4.54581L2.80565 13.7373L2.24014 16.7599L5.26272 16.1943L14.4542 7.00288ZM18.4419 3.13399C19.186 3.87811 19.186 5.08458 18.4419 5.82871L6.45174 17.8189C6.30989 17.9607 6.12847 18.0564 5.93129 18.0933L1.17816 18.9826C0.490832 19.1112 -0.111152 18.5092 0.0174442 17.8218L0.90674 13.0687C0.943632 12.8715 1.03928 12.6901 1.18113 12.5483L13.1713 0.558095C13.9154 -0.186032 15.1219 -0.186032 15.866 0.558095L18.4419 3.13399ZM18.0099 19H9.9901C8.66997 19 8.66997 17 9.9901 17H18.0099C19.33 17 19.33 19 18.0099 19Z" fill="#6B6F78"/>
</svg>
