<svg width="40" height="40" viewBox="0 0 40 40" fill="none" xmlns="http://www.w3.org/2000/svg">
<path d="M0 20C0 8.95431 8.95431 0 20 0V0C31.0457 0 40 8.95431 40 20V20C40 31.0457 31.0457 40 20 40V40C8.95431 40 0 31.0457 0 20V20Z" fill="#4CDAC5"/>
<path d="M18.78 25.02V26.5H12.38V25.02H14.724V18.276C14.724 18.0093 14.732 17.7347 14.748 17.452L13.084 18.844C12.988 18.9187 12.892 18.9667 12.796 18.988C12.7053 19.004 12.6173 19.004 12.532 18.988C12.452 18.972 12.38 18.9453 12.316 18.908C12.252 18.8653 12.204 18.82 12.172 18.772L11.548 17.916L15.076 14.916H16.7V25.02H18.78ZM20.6453 18.156C20.7253 17.6013 20.8799 17.116 21.1093 16.7C21.3386 16.2787 21.6239 15.9293 21.9653 15.652C22.3119 15.3693 22.7066 15.1587 23.1493 15.02C23.5973 14.876 24.0773 14.804 24.5893 14.804C25.1226 14.804 25.6026 14.8813 26.0293 15.036C26.4613 15.1853 26.8293 15.396 27.1333 15.668C27.4373 15.9347 27.6693 16.2493 27.8293 16.612C27.9946 16.9747 28.0773 17.3667 28.0773 17.788C28.0773 18.156 28.0346 18.4813 27.9493 18.764C27.8693 19.0413 27.7519 19.284 27.5973 19.492C27.4426 19.7 27.2506 19.876 27.0213 20.02C26.7919 20.164 26.5333 20.284 26.2453 20.38C26.9386 20.5987 27.4559 20.932 27.7973 21.38C28.1386 21.828 28.3093 22.3907 28.3093 23.068C28.3093 23.644 28.2026 24.1533 27.9893 24.596C27.7759 25.0387 27.4879 25.412 27.1253 25.716C26.7626 26.0147 26.3413 26.2413 25.8613 26.396C25.3866 26.5507 24.8826 26.628 24.3493 26.628C23.7679 26.628 23.2613 26.5613 22.8293 26.428C22.3973 26.2947 22.0213 26.0973 21.7013 25.836C21.3813 25.5747 21.1093 25.2547 20.8853 24.876C20.6613 24.4973 20.4693 24.06 20.3092 23.564L21.1813 23.204C21.4106 23.108 21.6239 23.084 21.8213 23.132C22.0239 23.1747 22.1706 23.2813 22.2613 23.452C22.3573 23.6387 22.4613 23.8227 22.5733 24.004C22.6906 24.1853 22.8293 24.348 22.9893 24.492C23.1493 24.6307 23.3359 24.7453 23.5493 24.836C23.7679 24.9213 24.0266 24.964 24.3253 24.964C24.6613 24.964 24.9546 24.9107 25.2053 24.804C25.4559 24.692 25.6639 24.548 25.8293 24.372C25.9999 24.196 26.1253 24.0013 26.2053 23.788C26.2906 23.5693 26.3333 23.3507 26.3333 23.132C26.3333 22.8547 26.3039 22.604 26.2453 22.38C26.1866 22.1507 26.0639 21.956 25.8773 21.796C25.6906 21.636 25.4213 21.5107 25.0693 21.42C24.7226 21.3293 24.2559 21.284 23.6693 21.284V19.876C24.1546 19.8707 24.5573 19.8253 24.8773 19.74C25.1973 19.6547 25.4506 19.5373 25.6373 19.388C25.8293 19.2333 25.9626 19.0493 26.0373 18.836C26.1119 18.6227 26.1493 18.388 26.1493 18.132C26.1493 17.588 25.9973 17.1747 25.6933 16.892C25.3893 16.6093 24.9839 16.468 24.4773 16.468C24.2426 16.468 24.0266 16.5027 23.8293 16.572C23.6319 16.636 23.4533 16.7293 23.2933 16.852C23.1386 16.9693 23.0079 17.108 22.9013 17.268C22.7946 17.428 22.7146 17.604 22.6613 17.796C22.5706 18.0413 22.4506 18.204 22.3013 18.284C22.1573 18.364 21.9519 18.3827 21.6853 18.34L20.6453 18.156Z" fill="white"/>
</svg>
