<svg width="40" height="40" viewBox="0 0 40 40" fill="none" xmlns="http://www.w3.org/2000/svg">
<path d="M0 20C0 8.95431 8.95431 0 20 0V0C31.0457 0 40 8.95431 40 20V20C40 31.0457 31.0457 40 20 40V40C8.95431 40 0 31.0457 0 20V20Z" fill="#414652"/>
<path fill-rule="evenodd" clip-rule="evenodd" d="M13.7036 17.972C13.3111 17.5834 12.6779 17.5866 12.2894 17.9791C11.9008 18.3716 11.904 19.0047 12.2964 19.3933L18.1218 25.1606C18.5331 25.5677 19.203 25.5418 19.5816 25.1041L27.7563 15.6542C28.1176 15.2365 28.0719 14.605 27.6542 14.2437C27.2365 13.8824 26.605 13.9281 26.2437 14.3458L18.7688 22.9868L13.7036 17.972Z" fill="white"/>
</svg>
